<svg width="20" height="18" viewBox="0 0 20 25" fill="none" xmlns="http://www.w3.org/2000/svg">
<path d="M25.1968 10.999L16.9937 19.2021C16.2612 19.9345 14.9917 19.4218 14.9917 18.372V13.6845H8.35107C7.70166 13.6845 7.1792 13.162 7.1792 12.5126V7.82514C7.1792 7.17572 7.70166 6.65326 8.35107 6.65326H14.9917V1.96576C14.9917 0.920838 16.2563 0.40326 16.9937 1.13568L25.1968 9.33881C25.6509 9.79779 25.6509 10.54 25.1968 10.999ZM10.3042 18.9579V17.0048C10.3042 16.6826 10.0405 16.4189 9.71826 16.4189H5.6167C4.75244 16.4189 4.0542 15.7206 4.0542 14.8564V5.48139C4.0542 4.61713 4.75244 3.91889 5.6167 3.91889H9.71826C10.0405 3.91889 10.3042 3.65521 10.3042 3.33295V1.37982C10.3042 1.05756 10.0405 0.793885 9.71826 0.793885H5.6167C3.02881 0.793885 0.929199 2.89349 0.929199 5.48139V14.8564C0.929199 17.4443 3.02881 19.5439 5.6167 19.5439H9.71826C10.0405 19.5439 10.3042 19.2802 10.3042 18.9579Z" fill="#212529"/>
</svg>
